<?xml version="1.0" encoding="utf-8"?>
<!-- Generator: Adobe Illustrator 20.0.0, SVG Export Plug-In . SVG Version: 6.00 Build 0)  -->
<svg version="1.1" id="Layer_1" xmlns="http://www.w3.org/2000/svg" xmlns:xlink="http://www.w3.org/1999/xlink" x="0px" y="0px"
	 viewBox="0 0 373.6 129.4" style="enable-background:new 0 0 373.6 129.4;" xml:space="preserve">
<style type="text/css">
	.st0{fill:#FF7BAC;}
	.st1{fill:#FFEE15;}
	.st2{fill:#FFCE16;}
	.st3{fill:#FDD089;}
	.st4{fill:#999999;}
	.st5{fill:#808080;}
	.st6{fill:#FFF1B6;}
</style>
<g>
	<path class="st0" d="M116.2,129.4H21c-11.6,0-21-9.5-21-21V21C0,9.4,9.4,0,21,0h95.2c11.5,0,21,9.4,21,21v87.4
		C137.2,119.9,127.8,129.4,116.2,129.4z"/>
	<rect x="37.9" class="st1" width="277.4" height="67.2"/>
	<rect x="37.9" y="62.2" class="st2" width="277.4" height="67.2"/>
	<polygon class="st3" points="373.2,65.5 361.5,78.2 315,129.4 315,0 	"/>
	<polygon class="st4" points="373.5,65.5 362,77.6 362,53.1 	"/>
	<rect x="15.5" class="st5" width="31" height="129.4"/>
	<g>
		<path class="st6" d="M85.6,70.4c1.4,0,2.6,0.2,3.6,0.5c1,0.4,1.9,0.9,2.5,1.6s1.2,1.5,1.5,2.4c0.3,1,0.5,2,0.5,3.2
			c0,1.2-0.2,2.2-0.5,3.2c-0.4,1-0.9,1.8-1.6,2.5c-0.7,0.7-1.5,1.2-2.6,1.6c-1,0.4-2.2,0.6-3.5,0.6h-3.5v9.3h-2.9V70.4H85.6z
			 M85.6,83.4c0.8,0,1.6-0.1,2.2-0.4c0.6-0.3,1.2-0.6,1.6-1.1c0.4-0.5,0.8-1,1-1.6c0.2-0.6,0.3-1.3,0.3-2.1c0-1.6-0.4-2.8-1.3-3.7
			c-0.9-0.9-2.2-1.3-3.9-1.3h-3.5v10.3H85.6z"/>
		<path class="st6" d="M111,92.6l0,2.7H97.5V70.4H111v2.7h-10.5v8.3h8.5v2.6h-8.5v8.5H111z"/>
		<path class="st6" d="M132.9,70.4v24.9h-1.5c-0.2,0-0.4,0-0.6-0.1c-0.2-0.1-0.3-0.2-0.5-0.5L117.7,76c0,0.3,0,0.6,0,0.9
			c0,0.3,0,0.5,0,0.8v17.8h-2.6V70.4h1.5c0.1,0,0.2,0,0.3,0c0.1,0,0.2,0,0.2,0.1c0.1,0,0.1,0.1,0.2,0.2c0.1,0.1,0.1,0.2,0.2,0.3
			l12.7,18.8c0-0.3,0-0.6-0.1-0.9c0-0.3,0-0.6,0-0.8V70.4H132.9z"/>
		<path class="st6" d="M153.8,90.2c0.2,0,0.3,0.1,0.4,0.2l1.2,1.4c-0.9,1.2-2,2.1-3.3,2.8c-1.3,0.7-2.8,1-4.6,1
			c-1.6,0-3-0.3-4.3-0.9c-1.3-0.6-2.4-1.5-3.3-2.6c-0.9-1.1-1.6-2.5-2.1-4c-0.5-1.6-0.7-3.3-0.7-5.2c0-1.9,0.3-3.6,0.8-5.2
			s1.2-2.9,2.2-4c0.9-1.1,2.1-2,3.4-2.6c1.3-0.6,2.8-0.9,4.4-0.9c1.6,0,2.9,0.3,4.1,0.9c1.2,0.6,2.2,1.3,3.1,2.3l-1,1.5
			c-0.1,0.1-0.1,0.2-0.2,0.3c-0.1,0.1-0.2,0.1-0.4,0.1c-0.2,0-0.4-0.1-0.7-0.3s-0.6-0.5-1-0.8c-0.4-0.3-1-0.5-1.6-0.8
			c-0.6-0.2-1.4-0.3-2.4-0.3c-1.1,0-2.2,0.2-3.1,0.7s-1.7,1.1-2.4,1.9s-1.2,1.9-1.6,3.1c-0.4,1.2-0.6,2.6-0.6,4.1
			c0,1.6,0.2,2.9,0.6,4.2c0.4,1.2,0.9,2.2,1.6,3.1c0.7,0.8,1.5,1.5,2.4,1.9c0.9,0.4,1.9,0.7,3,0.7c0.7,0,1.2,0,1.8-0.1
			c0.5-0.1,1-0.2,1.5-0.4c0.4-0.2,0.9-0.4,1.2-0.7c0.4-0.3,0.8-0.6,1.1-1C153.5,90.3,153.6,90.2,153.8,90.2z"/>
		<path class="st6" d="M161.8,95.4h-3V70.4h3V95.4z"/>
		<path class="st6" d="M179.8,92.5v2.8h-12.4V70.4h2.9v22.1H179.8z"/>
		<path class="st6" d="M208.7,95.4H206c-0.3,0-0.5,0-0.7-0.1c-0.2-0.1-0.4-0.2-0.6-0.5l-2.2-2.5c-1,1.1-2.1,1.9-3.3,2.5
			c-1.2,0.6-2.6,0.9-4.1,0.9c-0.8,0-1.6-0.2-2.4-0.5c-0.8-0.3-1.5-0.8-2.1-1.4c-0.6-0.6-1.1-1.3-1.5-2.2c-0.4-0.9-0.6-1.8-0.6-2.9
			c0-0.8,0.1-1.6,0.4-2.3c0.2-0.7,0.6-1.4,1-2s0.9-1.2,1.5-1.7c0.6-0.5,1.2-0.9,1.9-1.3c-0.6-0.9-1.1-1.8-1.4-2.6
			c-0.3-0.8-0.4-1.7-0.4-2.6c0-0.8,0.1-1.6,0.4-2.4c0.3-0.7,0.7-1.4,1.2-1.9c0.5-0.6,1.1-1,1.9-1.3c0.7-0.3,1.5-0.5,2.5-0.5
			c0.8,0,1.5,0.1,2.2,0.4c0.7,0.3,1.2,0.7,1.7,1.2s0.9,1.1,1.1,1.7c0.3,0.6,0.4,1.3,0.5,2l-1.7,0.4c-0.3,0.1-0.6-0.1-0.7-0.5
			c-0.1-0.3-0.2-0.6-0.3-0.9c-0.2-0.3-0.4-0.6-0.6-0.9c-0.2-0.3-0.5-0.5-0.9-0.7c-0.4-0.2-0.8-0.3-1.2-0.3c-0.5,0-1,0.1-1.4,0.3
			c-0.4,0.2-0.8,0.4-1.1,0.8c-0.3,0.3-0.5,0.7-0.7,1.2s-0.2,0.9-0.2,1.5c0,0.4,0,0.8,0.1,1.2s0.2,0.7,0.4,1.1
			c0.2,0.4,0.4,0.8,0.7,1.2c0.3,0.4,0.6,0.8,1,1.3l6.3,7.3c0.4-0.8,0.7-1.6,0.9-2.5c0.2-0.9,0.4-1.7,0.5-2.5c0-0.2,0.1-0.4,0.2-0.5
			c0.1-0.1,0.2-0.2,0.4-0.2h1.7c0,1.3-0.2,2.6-0.5,3.9c-0.4,1.3-0.9,2.5-1.5,3.6L208.7,95.4z M194.6,83.1c-1.1,0.6-1.9,1.4-2.4,2.4
			c-0.5,0.9-0.8,1.9-0.8,3c0,0.8,0.1,1.4,0.4,2c0.2,0.6,0.6,1.1,1,1.5c0.4,0.4,0.8,0.7,1.4,0.9c0.5,0.2,1,0.3,1.6,0.3
			c1.1,0,2.2-0.2,3.1-0.7c0.9-0.5,1.7-1.1,2.4-1.9L194.6,83.1z"/>
		<path class="st6" d="M234.9,90.2c0.2,0,0.3,0.1,0.4,0.2l1.2,1.4c-0.9,1.2-2,2.1-3.3,2.8c-1.3,0.7-2.8,1-4.6,1
			c-1.6,0-3-0.3-4.3-0.9c-1.3-0.6-2.4-1.5-3.3-2.6c-0.9-1.1-1.6-2.5-2.1-4c-0.5-1.6-0.7-3.3-0.7-5.2c0-1.9,0.3-3.6,0.8-5.2
			c0.5-1.6,1.2-2.9,2.2-4c0.9-1.1,2.1-2,3.4-2.6c1.3-0.6,2.8-0.9,4.4-0.9c1.6,0,2.9,0.3,4.1,0.9c1.2,0.6,2.2,1.3,3.1,2.3l-1,1.5
			c-0.1,0.1-0.1,0.2-0.2,0.3c-0.1,0.1-0.2,0.1-0.4,0.1c-0.2,0-0.4-0.1-0.7-0.3s-0.6-0.5-1-0.8c-0.4-0.3-1-0.5-1.6-0.8
			c-0.6-0.2-1.4-0.3-2.4-0.3c-1.1,0-2.2,0.2-3.1,0.7s-1.7,1.1-2.4,1.9c-0.7,0.8-1.2,1.9-1.6,3.1s-0.6,2.6-0.6,4.1
			c0,1.6,0.2,2.9,0.6,4.2c0.4,1.2,0.9,2.2,1.6,3.1c0.7,0.8,1.5,1.5,2.4,1.9c0.9,0.4,1.9,0.7,3,0.7c0.7,0,1.2,0,1.8-0.1
			c0.5-0.1,1-0.2,1.5-0.4s0.9-0.4,1.2-0.7c0.4-0.3,0.8-0.6,1.1-1C234.6,90.3,234.7,90.2,234.9,90.2z"/>
		<path class="st6" d="M259.7,82.9c0,1.9-0.3,3.6-0.8,5.1c-0.5,1.6-1.3,2.9-2.2,4c-0.9,1.1-2.1,2-3.4,2.6c-1.3,0.6-2.8,0.9-4.4,0.9
			c-1.6,0-3.1-0.3-4.4-0.9c-1.3-0.6-2.5-1.5-3.4-2.6c-0.9-1.1-1.7-2.5-2.2-4c-0.5-1.6-0.8-3.3-0.8-5.1c0-1.9,0.3-3.6,0.8-5.1
			c0.5-1.6,1.3-2.9,2.2-4c0.9-1.1,2.1-2,3.4-2.6c1.3-0.6,2.8-0.9,4.4-0.9c1.6,0,3.1,0.3,4.4,0.9c1.3,0.6,2.5,1.5,3.4,2.6
			c0.9,1.1,1.7,2.5,2.2,4C259.5,79.3,259.7,81,259.7,82.9z M256.7,82.9c0-1.5-0.2-2.9-0.5-4.1c-0.4-1.2-0.9-2.2-1.6-3.1
			c-0.7-0.8-1.5-1.5-2.4-1.9c-1-0.5-2-0.7-3.2-0.7c-1.2,0-2.2,0.2-3.2,0.7s-1.8,1.1-2.5,1.9c-0.7,0.8-1.2,1.9-1.6,3.1
			c-0.4,1.2-0.5,2.6-0.5,4.1c0,1.5,0.2,2.9,0.5,4.1c0.4,1.2,0.9,2.2,1.6,3.1c0.7,0.8,1.5,1.5,2.5,1.9c1,0.4,2,0.7,3.2,0.7
			c1.2,0,2.2-0.2,3.2-0.7c1-0.4,1.8-1.1,2.4-1.9c0.7-0.8,1.2-1.9,1.6-3.1C256.5,85.8,256.7,84.4,256.7,82.9z"/>
		<path class="st6" d="M262.2,93.5c0-0.3,0-0.6,0.1-0.9c0.1-0.3,0.2-0.5,0.4-0.7c0.2-0.2,0.4-0.4,0.6-0.5c0.2-0.1,0.5-0.2,0.7-0.2
			c0.3,0,0.5,0.1,0.7,0.2c0.2,0.1,0.4,0.3,0.6,0.5c0.2,0.2,0.3,0.4,0.4,0.7c0.1,0.3,0.2,0.6,0.2,0.9c0,0.3-0.1,0.6-0.2,0.9
			c-0.1,0.3-0.2,0.5-0.4,0.7c-0.2,0.2-0.4,0.4-0.6,0.5c-0.2,0.1-0.5,0.2-0.7,0.2c-0.3,0-0.5-0.1-0.7-0.2c-0.2-0.1-0.4-0.3-0.6-0.5
			c-0.2-0.2-0.3-0.4-0.4-0.7C262.2,94.1,262.2,93.8,262.2,93.5z"/>
	</g>
</g>
</svg>
